<svg width="137" height="28" viewBox="0 0 137 28" fill="none" xmlns="http://www.w3.org/2000/svg">
<path fill-rule="evenodd" clip-rule="evenodd" d="M16.9226 4.47077L12.9932 0.147157C12.81 -0.0497723 12.5129 -0.0497713 12.3337 0.15165L8.45812 4.41323L8.42483 4.38829L7.97327 4.06322L7.52976 3.76075L7.09856 3.47631L6.6799 3.21897L6.27757 2.98422L5.88329 2.76752L5.50557 2.58242L5.14016 2.41536L4.79108 2.27993L4.45438 2.16706L4.1341 2.08127L3.82204 2.0271L3.52642 2.00002L3.23899 2.00906L2.96799 2.05419L2.7052 2.13998L2.46295 2.27993L2.24943 2.47406L2.07287 2.70881L1.9456 2.97518L1.86757 3.26414L1.82651 3.56663L1.8183 3.87813L1.84293 4.20318L1.89221 4.5463L1.97023 4.89846L2.07287 5.26877L2.19606 5.65238L2.34797 6.05423L2.51634 6.46962L2.70931 6.90298L2.92693 7.34989L3.16099 7.81033L3.41966 8.27989L3.69476 8.76742L3.9904 9.26407L4.0132 9.30087L0.134313 13.5661C-0.0447716 13.7675 -0.0447716 14.0897 0.134313 14.2914L4.06707 18.6158L3.9945 18.7344L3.69476 19.2312L3.41964 19.7188L3.16508 20.1931L2.92693 20.6536L2.71341 21.0962L2.52043 21.5296L2.34798 21.9451L2.20015 22.347L2.07288 22.7307L1.97433 23.1011L1.8963 23.4577L1.84293 23.7963L1.8183 24.1214L1.82651 24.4377L1.86757 24.7401L1.94969 25.0245L2.07697 25.291L2.24943 25.5304L2.46295 25.72L2.70929 25.8599L2.96799 25.9503L3.24309 25.9956L3.5264 26L3.82616 25.9774L4.13411 25.9187L4.45848 25.8328L4.79106 25.72L5.14417 25.5845L5.50958 25.422L5.8873 25.2324L6.27755 25.0201L6.68391 24.7854L7.1028 24.5234L7.53401 24.2433L7.97326 23.9365L8.42481 23.6111L8.53503 23.5286L12.4568 27.8409L12.4641 27.849C12.6431 28.0504 12.9402 28.0504 13.1234 27.849L17.0004 23.5844L17.0311 23.6074L17.4829 23.9324L17.9262 24.2395L18.3574 24.5192L18.772 24.7812L19.1786 25.0158L19.5729 25.2281L19.9506 25.4177L20.316 25.5802L20.6651 25.7203L21.0016 25.8287L21.3221 25.9143L21.634 25.9729L21.9296 26L22.2129 25.9912L22.4881 25.9458L22.7508 25.8557L22.9932 25.7156L23.2066 25.526L23.3792 25.2914L23.5065 25.0205L23.5886 24.7359L23.6296 24.4335L23.6378 24.1176L23.6132 23.7923L23.5638 23.4538L23.4859 23.0972L23.3832 22.7269L23.2559 22.3433L23.1082 21.9414L22.9357 21.526L22.7428 21.0927L22.5291 20.6502L22.295 20.1898L22.0363 19.7158L21.7613 19.228L21.4657 18.7313L21.4441 18.6965L25.3189 14.4344C25.5019 14.233 25.5019 13.9108 25.3189 13.7094L21.3911 9.38752L21.4657 9.26543L21.7613 8.76869L22.0406 8.28107L22.2953 7.80699L22.5333 7.35089L22.7468 6.90391L22.9397 6.47047L23.1122 6.055L23.2601 5.65308L23.3832 5.26913L23.4859 4.89896L23.564 4.54676L23.6173 4.20358L23.6378 3.87847L23.6338 3.56238L23.5926 3.26436L23.5105 2.97536L23.3832 2.70894L23.2107 2.47414L22.9972 2.27998L22.7508 2.14L22.4922 2.0542L22.2172 2.00452L21.9296 2.00002L21.634 2.02711L21.3261 2.08129L21.0016 2.16709L20.6651 2.27998L20.316 2.41543L19.9506 2.5825L19.5729 2.76765L19.1826 2.97987L18.7763 3.2192L18.3574 3.47658L17.9264 3.76105L17.4869 4.0636L17.0311 4.3887L16.9226 4.47077ZM16.1422 5.06597L12.6595 1.23509L9.23459 5.00361L9.36107 5.10157L9.8415 5.48987L10.3302 5.89615L10.831 6.32508L11.332 6.76756L11.8411 7.23243L12.3584 7.71111L12.7292 8.07019L13.1018 7.71218L13.6149 7.23341L14.1242 6.76846L14.6292 6.3259L15.126 5.89689L15.6147 5.49054L16.0951 5.10216L16.1422 5.06597ZM13.4319 8.76149L13.7093 8.49336L14.2143 8.02371L14.7154 7.56761L15.2081 7.13417L15.6968 6.71428L16.173 6.31678L16.6451 5.93752L16.8149 5.80591L20.1785 9.50563L20.0574 9.69444L19.7125 10.2138L19.3511 10.7377L18.9734 11.2748L18.5751 11.8168L18.1645 12.3678L17.7333 12.9231L17.4945 13.2246L17.0394 12.6817L16.5427 12.0994L16.0333 11.5215L15.512 10.9392L14.9823 10.3613L14.4527 9.80134L13.923 9.25521L13.4319 8.76149ZM12.0254 8.76159L11.7466 8.49215L11.2416 8.02258L10.7408 7.56657L10.2481 7.13321L9.7634 6.71339L9.28297 6.31597L8.81509 5.94146L8.56249 5.74314L5.2225 9.41827L5.39884 9.693L5.74366 10.2123L6.10504 10.736L6.48276 11.2733L6.88107 11.815L7.29168 12.3658L7.72288 12.9211L7.96513 13.2271L8.41677 12.6837L8.91353 12.1013L9.42259 11.5233L9.94822 10.9408L10.4739 10.3628L11.0035 9.8028L11.5332 9.25657L12.0254 8.76159ZM8.5905 14.0013L8.63024 13.9525L9.10238 13.3836L9.5911 12.8147L10.0919 12.2412L10.6092 11.6678L11.1308 11.0987L11.6522 10.5478L12.1696 10.0107L12.6869 9.49126L12.7287 9.4501L12.769 9.48986L13.2864 10.0092L13.808 10.5464L14.3294 11.097L14.851 11.666L15.3641 12.2393L15.8651 12.8127L16.3538 13.3815L16.83 13.9503L16.8695 13.9988L16.83 14.0473L16.3578 14.6165L15.8691 15.1898L15.3683 15.7587L14.851 16.3323L14.3294 16.9012L13.808 17.4521L13.2906 17.9894L12.7733 18.5133L12.7298 18.5561L12.6829 18.5102L12.1696 17.9865L11.6482 17.4492L11.1266 16.8984L10.6052 16.334L10.0919 15.7608L9.59111 15.1874L9.1024 14.6141L8.62623 14.0451L8.5905 14.0013ZM7.33729 14.0015L7.01242 13.5893L6.57719 13.025L6.15427 12.4651L5.75194 11.9098L5.36192 11.3634L4.99225 10.8261L4.63915 10.2936L4.55146 10.1566L1.12344 13.9286L4.60764 17.7599L4.64324 17.705L4.99625 17.1767L5.36592 16.6347L5.75192 16.0885L6.15828 15.5331L6.57717 14.9731L7.01666 14.4086L7.33729 14.0015ZM5.27913 18.4983L5.40284 18.3054L5.74766 17.7907L6.10905 17.2624L6.48677 16.7295L6.88105 16.1877L7.29569 15.6368L7.72287 15.0814L7.96532 14.7756L8.41678 15.3139L8.90952 15.8963L9.42261 16.4786L9.94421 17.0609L10.4739 17.6344L11.0035 18.1943L11.5292 18.7404L12.0254 19.2437L11.7509 19.5067L11.2416 19.9764L10.7448 20.4322L10.2521 20.8704L9.76339 21.2858L9.28722 21.6831L8.81507 22.0623L8.64227 22.1964L5.27913 18.4983ZM4.74136 19.3572L4.48721 19.7865L4.22032 20.2562L3.97396 20.7078L3.74813 21.1457L3.54694 21.5658L3.36627 21.9675L3.21024 22.3515L3.07475 22.7172L2.96387 23.0558L2.87765 23.372L2.81196 23.6609L2.7709 23.9229L2.75447 24.1532L2.75857 24.3517L2.7832 24.5098L2.81605 24.6364L2.86123 24.7312L2.9105 24.7989L2.9762 24.8575L3.06242 24.9073L3.1733 24.9432L3.32109 24.9703H3.49767L3.70707 24.9524L3.94522 24.9117L4.21211 24.8396L4.49954 24.7448L4.80739 24.6229L5.13589 24.4739L5.48497 24.3022L5.85038 24.1035L6.23235 23.8776L6.63066 23.6338L7.04529 23.3629L7.46821 23.0693L7.86063 22.7871L4.74136 19.3572ZM9.31364 22.9347L12.7937 26.7614L16.2209 22.9915L16.0951 22.8941L15.6147 22.5058L15.122 22.0995L14.625 21.675L14.1242 21.2281L13.6109 20.763L13.0975 20.2846L12.7312 19.9329L12.3584 20.2879L11.8453 20.7664L11.336 21.2317L10.831 21.6742L10.3342 22.103L9.84551 22.5096L9.36106 22.8979L9.31364 22.9347ZM13.4358 19.2416L13.7093 19.5035L14.2143 19.9775L14.7154 20.4291L15.2081 20.8669L15.6926 21.2823L16.173 21.6794L16.6411 22.0589L16.892 22.2534L20.2327 18.5787L20.0533 18.3027L19.7125 17.7878L19.3511 17.2596L18.9692 16.727L18.5751 16.1851L18.1602 15.6343L17.7333 15.079L17.4939 14.7744L17.0434 15.3164L16.5467 15.8988L16.0376 16.4813L15.512 17.0637L14.9823 17.6373L14.4567 18.1971L13.927 18.7435L13.4358 19.2416ZM18.1227 13.9989L18.4438 14.4063L18.879 14.9707L19.3019 15.535L19.7043 16.0859L20.0943 16.6322L20.4639 17.1739L20.817 17.7021L20.9049 17.8393L24.3298 14.0719L20.85 10.2443L20.817 10.2951L20.4639 10.8278L20.0943 11.3652L19.7083 11.9117L19.3019 12.467L18.883 13.027L18.4438 13.5912L18.1227 13.9989ZM20.7185 8.64748L17.5981 5.21406L17.992 4.93058L18.4149 4.63707L18.8295 4.36614L19.2238 4.12231L19.6098 3.90103L19.9752 3.70236L20.3243 3.52625L20.6528 3.37723L20.9607 3.25532L21.248 3.16049L21.515 3.09276L21.749 3.04762L21.9585 3.02954L22.1391 3.03407L22.2827 3.05663L22.3977 3.09727L22.4841 3.14243L22.5456 3.20115L22.5989 3.27338L22.6441 3.36369L22.677 3.49012L22.7016 3.64818L22.7056 3.84685L22.6853 4.07714L22.6484 4.33906L22.5826 4.62803L22.4964 4.94413L22.3854 5.28736L22.25 5.64865L22.0939 6.03234L21.9133 6.43426L21.7121 6.85415L21.4863 7.29228L21.24 7.7437L20.973 8.21334L20.7185 8.64748ZM17.988 23.0655L17.6743 22.8432L20.7673 19.441L20.973 19.7835L21.24 20.2528L21.4821 20.7044L21.7078 21.1424L21.9093 21.5622L22.0898 21.9685L22.25 22.3477L22.3814 22.7134L22.4922 23.0519L22.5826 23.3681L22.6441 23.6569L22.6853 23.9189L22.7016 24.1491L22.6976 24.3478L22.677 24.5057L22.6401 24.6322L22.5989 24.727L22.5456 24.7947L22.4799 24.8533L22.3937 24.9031L22.2827 24.9393L22.135 24.9664L21.9585 24.9708L21.749 24.9481L21.5109 24.9075L21.248 24.8354L20.9607 24.7406L20.6485 24.6187L20.32 24.4697L19.9712 24.2981L19.6056 24.0994L19.2238 23.8736L18.8255 23.6298L18.4149 23.359L17.988 23.0655ZM7.78133 5.15742L4.68881 8.55797L4.48311 8.21218L4.21623 7.74731L3.96986 7.29129L3.74815 6.85324L3.54285 6.43342L3.36627 6.03157L3.20614 5.64796L3.07065 5.28673L2.95977 4.94359L2.87356 4.62758L2.81195 4.33863L2.77089 4.07676L2.75447 3.84651L2.75859 3.64788L2.77911 3.48988L2.81607 3.36346L2.85713 3.27317L2.9105 3.20093L2.9762 3.14223L3.05832 3.09709L3.17329 3.05646L3.317 3.03389L3.49767 3.02936L3.70709 3.04743L3.94522 3.09256L4.20801 3.1603L4.49544 3.2551L4.80339 3.37701L5.1359 3.52597L5.48498 3.70205L5.85039 3.90071L6.23237 4.12192L6.63068 4.37022L7.04129 4.63659L7.46823 4.93005L7.78133 5.15742ZM12.7281 16C13.7321 16 14.5464 15.1046 14.5464 14C14.5464 12.8955 13.7321 12 12.7281 12C11.7237 12 10.9098 12.8955 10.9098 14C10.9098 15.1046 11.7237 16 12.7281 16ZM29.3145 16.328C29.6745 16.776 30.1385 17.14 30.7065 17.42C31.2745 17.692 31.9545 17.828 32.7465 17.828C33.5865 17.828 34.3105 17.672 34.9185 17.36C35.5345 17.04 36.0185 16.616 36.3705 16.088C36.7305 15.552 36.9465 14.964 37.0185 14.324H35.0505C34.9625 14.844 34.7065 15.252 34.2825 15.548C33.8665 15.844 33.3545 15.992 32.7465 15.992C32.3465 15.992 31.9905 15.928 31.6785 15.8C31.3665 15.664 31.1025 15.472 30.8865 15.224C30.6785 14.968 30.5185 14.672 30.4065 14.336C30.3025 13.992 30.2505 13.616 30.2505 13.208C30.2505 12.792 30.3025 12.416 30.4065 12.08C30.5185 11.736 30.6745 11.44 30.8745 11.192C31.0825 10.944 31.3385 10.752 31.6425 10.616C31.9465 10.48 32.2945 10.412 32.6865 10.412C33.0785 10.412 33.4305 10.48 33.7425 10.616C34.0625 10.752 34.3225 10.944 34.5225 11.192C34.7225 11.44 34.8505 11.74 34.9065 12.092H36.8865C36.8225 11.388 36.6065 10.776 36.2385 10.256C35.8785 9.72801 35.3945 9.31601 34.7865 9.02001C34.1785 8.72401 33.4785 8.57601 32.6865 8.57601C31.9265 8.57601 31.2665 8.70801 30.7065 8.97201C30.1545 9.22801 29.6945 9.57201 29.3265 10.004C28.9665 10.436 28.6985 10.92 28.5225 11.456C28.3465 11.984 28.2585 12.52 28.2585 13.064V13.328C28.2585 13.824 28.3425 14.336 28.5105 14.864C28.6865 15.384 28.9545 15.872 29.3145 16.328ZM42.1882 16.3331V17.6H43.7122V13.568C43.7122 12.96 43.5922 12.464 43.3522 12.08C43.1122 11.688 42.7602 11.396 42.2962 11.204C41.8402 11.012 41.2762 10.916 40.6042 10.916C40.3722 10.916 40.1242 10.92 39.8602 10.928C39.5962 10.936 39.3402 10.948 39.0922 10.964C38.8442 10.98 38.6282 10.996 38.4442 11.012V12.632C38.6922 12.616 38.9682 12.6 39.2722 12.584C39.5762 12.568 39.8722 12.556 40.1602 12.548C40.4482 12.54 40.6802 12.536 40.8562 12.536C41.2082 12.536 41.4642 12.62 41.6242 12.788C41.7842 12.956 41.8642 13.208 41.8642 13.544V13.568H40.6762C40.0922 13.568 39.5762 13.644 39.1282 13.796C38.6802 13.94 38.3322 14.168 38.0842 14.48C37.8362 14.784 37.7122 15.176 37.7122 15.656C37.7122 16.096 37.8122 16.476 38.0122 16.796C38.2122 17.108 38.4882 17.348 38.8402 17.516C39.2002 17.684 39.6162 17.768 40.0882 17.768C40.5442 17.768 40.9282 17.684 41.2402 17.516C41.5602 17.348 41.8082 17.108 41.9842 16.796C42.0666 16.6562 42.1346 16.5019 42.1882 16.3331ZM41.8642 15.164V14.636H40.6642C40.3282 14.636 40.0682 14.72 39.8842 14.888C39.7082 15.048 39.6202 15.268 39.6202 15.548C39.6202 15.812 39.7082 16.028 39.8842 16.196C40.0682 16.356 40.3282 16.436 40.6642 16.436C40.8802 16.436 41.0722 16.4 41.2402 16.328C41.4162 16.248 41.5602 16.116 41.6722 15.932C41.7842 15.748 41.8482 15.492 41.8642 15.164ZM45.3412 11.024V17.6H47.2612V14.252C47.2612 13.716 47.4052 13.308 47.6932 13.028C47.9812 12.74 48.3892 12.596 48.9172 12.596H49.3972V10.94H49.1452C48.3932 10.94 47.8172 11.192 47.4172 11.696C47.1222 12.0753 46.9382 12.5746 46.8652 13.1941V11.024H45.3412ZM51.9243 17.444C52.3323 17.604 52.8683 17.684 53.5323 17.684H54.4563V16.064H53.4843C53.1803 16.064 52.9443 15.984 52.7763 15.824C52.6163 15.656 52.5363 15.416 52.5363 15.104V12.428H54.4563V11.024H52.5363V9.24801H50.7483V11.024H49.7523V12.428H50.7483V15.032C50.7483 15.696 50.8403 16.224 51.0243 16.616C51.2163 17 51.5163 17.276 51.9243 17.444ZM57.248 17.54C57.68 17.732 58.176 17.828 58.736 17.828C59.288 17.828 59.776 17.732 60.2 17.54C60.624 17.348 60.976 17.08 61.256 16.736C61.536 16.392 61.724 16 61.82 15.56H60.056C59.976 15.76 59.824 15.928 59.6 16.064C59.376 16.2 59.088 16.268 58.736 16.268C58.352 16.268 58.04 16.188 57.8 16.028C57.56 15.868 57.384 15.644 57.272 15.356C57.2095 15.1909 57.1645 15.0109 57.1368 14.816H61.94V14.168C61.94 13.568 61.812 13.016 61.556 12.512C61.3 12 60.928 11.588 60.44 11.276C59.96 10.956 59.368 10.796 58.664 10.796C58.128 10.796 57.648 10.892 57.224 11.084C56.808 11.268 56.46 11.52 56.18 11.84C55.9 12.16 55.684 12.524 55.532 12.932C55.388 13.332 55.316 13.752 55.316 14.192V14.432C55.316 14.856 55.388 15.272 55.532 15.68C55.684 16.08 55.9 16.444 56.18 16.772C56.468 17.092 56.824 17.348 57.248 17.54ZM57.1515 13.724C57.1815 13.552 57.2257 13.396 57.284 13.256C57.404 12.96 57.58 12.736 57.812 12.584C58.044 12.432 58.328 12.356 58.664 12.356C58.992 12.356 59.264 12.432 59.48 12.584C59.704 12.728 59.872 12.94 59.984 13.22C60.0446 13.3716 60.0888 13.5396 60.1166 13.724H57.1515ZM63.2122 11.024V17.6H65.1322V13.772C65.1322 13.404 65.2402 13.108 65.4562 12.884C65.6802 12.652 65.9722 12.536 66.3322 12.536C66.6842 12.536 66.9642 12.648 67.1722 12.872C67.3802 13.096 67.4842 13.384 67.4842 13.736V17.6H69.4042V13.844C69.4042 12.828 69.2002 12.072 68.7922 11.576C68.3923 11.072 67.8083 10.82 67.0402 10.82H66.9562C66.4522 10.82 66.0242 10.932 65.6722 11.156C65.3202 11.38 65.0562 11.716 64.8802 12.164C64.8222 12.3187 64.7742 12.4868 64.7362 12.6683V11.024H63.2122ZM70.6084 16.256V17.6H75.8884V16.124H72.9004L72.7819 15.9759L75.7924 12.368V11.024H70.6204V12.5H73.4908L73.614 12.654L70.6084 16.256ZM80.7353 17.456C81.2793 17.704 81.9473 17.828 82.7393 17.828C83.4833 17.828 84.1233 17.712 84.6593 17.48C85.1953 17.248 85.6073 16.924 85.8953 16.508C86.1913 16.084 86.3393 15.592 86.3393 15.032C86.3393 14.488 86.1993 14.028 85.9193 13.652C85.6473 13.268 85.2673 12.968 84.7793 12.752C84.2913 12.528 83.7273 12.388 83.0873 12.332L82.4153 12.272C82.0153 12.24 81.7273 12.132 81.5513 11.948C81.3753 11.764 81.2873 11.548 81.2873 11.3C81.2873 11.108 81.3353 10.932 81.4313 10.772C81.5273 10.604 81.6713 10.472 81.8633 10.376C82.0633 10.28 82.3073 10.232 82.5953 10.232C82.8993 10.232 83.1513 10.288 83.3513 10.4C83.5593 10.512 83.7153 10.66 83.8193 10.844C83.9233 11.02 83.9753 11.216 83.9753 11.432H85.8953C85.8953 10.856 85.7633 10.356 85.4993 9.93201C85.2353 9.50001 84.8553 9.16801 84.3593 8.93601C83.8713 8.69601 83.2833 8.57601 82.5953 8.57601C81.9393 8.57601 81.3713 8.68801 80.8913 8.91201C80.4113 9.12801 80.0353 9.44001 79.7633 9.84801C79.4993 10.256 79.3673 10.74 79.3673 11.3C79.3673 12.076 79.6273 12.7 80.1473 13.172C80.6673 13.644 81.3633 13.916 82.2353 13.988L82.8953 14.048C83.4313 14.096 83.8193 14.204 84.0593 14.372C84.2993 14.532 84.4193 14.752 84.4193 15.032C84.4193 15.256 84.3553 15.456 84.2273 15.632C84.0993 15.8 83.9113 15.932 83.6633 16.028C83.4153 16.124 83.1073 16.172 82.7393 16.172C82.3313 16.172 81.9993 16.116 81.7433 16.004C81.4873 15.884 81.2953 15.728 81.1673 15.536C81.0473 15.344 80.9873 15.136 80.9873 14.912H79.0793C79.0793 15.48 79.2193 15.984 79.4993 16.424C79.7793 16.856 80.1913 17.2 80.7353 17.456ZM89.0512 17.552C89.4753 17.736 89.9712 17.828 90.5392 17.828C91.1312 17.828 91.6592 17.716 92.1232 17.492C92.5872 17.26 92.9592 16.94 93.2393 16.532C93.5192 16.116 93.6712 15.636 93.6952 15.092H91.8232C91.7992 15.308 91.7312 15.5 91.6192 15.668C91.5152 15.828 91.3712 15.956 91.1872 16.052C91.0112 16.14 90.7952 16.184 90.5392 16.184C90.1952 16.184 89.9152 16.108 89.6992 15.956C89.4912 15.796 89.3392 15.576 89.2432 15.296C89.1472 15.008 89.0992 14.688 89.0992 14.336C89.0992 13.952 89.1512 13.62 89.2552 13.34C89.3592 13.06 89.5152 12.84 89.7232 12.68C89.9392 12.52 90.2072 12.44 90.5272 12.44C90.9112 12.44 91.2032 12.544 91.4032 12.752C91.6112 12.952 91.7312 13.2 91.7632 13.496H93.6472C93.6152 12.968 93.4632 12.5 93.1912 12.092C92.9193 11.684 92.5552 11.368 92.0992 11.144C91.6432 10.912 91.1192 10.796 90.5272 10.796C89.9832 10.796 89.4992 10.888 89.0752 11.072C88.6592 11.256 88.3112 11.508 88.0312 11.828C87.7512 12.148 87.5392 12.516 87.3952 12.932C87.2512 13.34 87.1792 13.768 87.1792 14.216V14.444C87.1792 14.876 87.2472 15.296 87.3832 15.704C87.5192 16.104 87.7272 16.464 88.0072 16.784C88.2872 17.104 88.6352 17.36 89.0512 17.552ZM98.8952 16.3331V17.6H100.419V13.568C100.419 12.96 100.299 12.464 100.059 12.08C99.8192 11.688 99.4672 11.396 99.0032 11.204C98.5472 11.012 97.9832 10.916 97.3112 10.916C97.0792 10.916 96.8312 10.92 96.5672 10.928C96.3032 10.936 96.0472 10.948 95.7992 10.964C95.5512 10.98 95.3352 10.996 95.1512 11.012V12.632C95.3992 12.616 95.6752 12.6 95.9792 12.584C96.2832 12.568 96.5792 12.556 96.8672 12.548C97.1552 12.54 97.3872 12.536 97.5632 12.536C97.9152 12.536 98.1712 12.62 98.3312 12.788C98.4912 12.956 98.5712 13.208 98.5712 13.544V13.568H97.3832C96.7992 13.568 96.2832 13.644 95.8352 13.796C95.3872 13.94 95.0392 14.168 94.7912 14.48C94.5432 14.784 94.4192 15.176 94.4192 15.656C94.4192 16.096 94.5192 16.476 94.7192 16.796C94.9192 17.108 95.1952 17.348 95.5472 17.516C95.9072 17.684 96.3232 17.768 96.7952 17.768C97.2512 17.768 97.6352 17.684 97.9472 17.516C98.2672 17.348 98.5152 17.108 98.6912 16.796C98.7736 16.6562 98.8416 16.5019 98.8952 16.3331ZM98.5712 15.164V14.636H97.3712C97.0352 14.636 96.7752 14.72 96.5912 14.888C96.4152 15.048 96.3272 15.268 96.3272 15.548C96.3272 15.812 96.4152 16.028 96.5912 16.196C96.7752 16.356 97.0352 16.436 97.3712 16.436C97.5872 16.436 97.7792 16.4 97.9472 16.328C98.1232 16.248 98.2672 16.116 98.3792 15.932C98.4912 15.748 98.5552 15.492 98.5712 15.164ZM102.048 11.024V17.6H103.968V13.772C103.968 13.404 104.076 13.108 104.292 12.884C104.516 12.652 104.808 12.536 105.168 12.536C105.52 12.536 105.8 12.648 106.008 12.872C106.216 13.096 106.32 13.384 106.32 13.736V17.6H108.24V13.844C108.24 12.828 108.036 12.072 107.628 11.576C107.228 11.072 106.644 10.82 105.876 10.82H105.792C105.288 10.82 104.86 10.932 104.508 11.156C104.156 11.38 103.892 11.716 103.716 12.164C103.658 12.3187 103.61 12.4868 103.572 12.6683V11.024H102.048Z" fill="url(#paint0_linear_412_176)"/>
<defs>
<linearGradient id="paint0_linear_412_176" x1="22.666" y1="80.5717" x2="118.997" y2="80.5717" gradientUnits="userSpaceOnUse">
<stop stop-color="#0069FF"/>
<stop offset="0.722315" stop-color="#D856C1"/>
</linearGradient>
</defs>
</svg>
